<svg width="115" height="80" viewBox="0 0 115 80" fill="none" xmlns="http://www.w3.org/2000/svg">
<g id="logo">
<path id="Vector" d="M17.9037 65.5976C17.361 65.4848 17.0112 64.9632 17.1206 64.4252C17.7394 61.4016 19.7863 51.6964 22.6447 41.0843C26.0957 28.2685 30.1655 19.3175 30.1655 19.3175C30.1655 19.3175 37.2984 15.3353 53.3945 9.12593C53.9419 8.91448 54.5345 9.31153 54.5345 9.89182C54.5345 10.2372 54.3155 10.5473 53.9871 10.6648L52.6567 11.1558V11.5904C52.6567 11.9757 52.3877 12.3117 52.0093 12.4009L50.8764 12.8591L51.431 13.1621C51.9617 13.4511 51.9236 14.2146 51.3667 14.4496L51.3548 14.4543C48.2965 15.7323 35.4825 21.0983 33.3071 22.2166C33.3071 22.2166 30.4226 29.3868 29.0302 33.8624C29.0302 33.8624 39.1358 28.3155 43.9125 26.6334C44.5551 26.4078 45.2239 26.8989 45.1906 27.5731C45.1715 27.9608 44.9121 28.2991 44.5361 28.4212L43.6102 28.7267C43.6102 29.1801 43.3103 29.5795 42.87 29.7087L42.5797 29.7956C42.5797 30.5592 42.0965 31.2428 41.3706 31.5036L41.035 31.6258C41.035 32.2108 40.6852 32.737 40.1402 32.9673C37.8553 33.9329 31.7173 36.5853 27.9997 38.7467C27.9997 38.7467 27.4856 39.7123 26.7621 42.3577C26.0386 45.003 23.0017 56.3434 22.0734 62.8535C21.983 63.7181 21.3023 64.4088 20.4289 64.5216C20.1956 64.5521 20.0005 64.35 20.0385 64.1222L20.0647 63.9718C20.0647 63.9718 19.3959 64.0235 19.2412 64.3782C19.1936 64.4887 19.1389 64.6696 19.0889 64.8669C18.9556 65.3861 18.432 65.7103 17.9013 65.5999L17.9037 65.5976Z" fill="#375474"/>
<path id="Vector_2" d="M68.1035 21.8443C67.2801 21.0314 66.0781 20.8599 64.5692 21.1324C63.0579 21.4049 60.3756 22.3188 60.3756 22.3188C65.0024 16.0766 67.1587 12.5737 68.0964 10.8892C68.5034 10.1679 68.1916 9.25167 67.4276 8.91336C66.9469 8.69957 66.4923 8.52572 66.1686 8.40825C65.8616 8.29783 65.526 8.29783 65.2142 8.39885C61.7632 9.5148 57.4553 11.9017 57.3221 11.9746C57.7243 11.5 56.3915 10.7905 56.3915 10.7905C56.6985 9.97762 55.9464 9.74034 55.4276 9.66986C54.9135 9.60172 54.5351 9.89304 53.8806 11.4342C50.4819 18.5223 48.0757 25.6714 45.4672 33.2669C42.8539 40.8623 39.5243 53.1025 39.1459 54.4229C38.7674 55.7479 39.8337 55.6093 40.2121 55.7479C40.5905 55.8818 40.8976 55.5435 40.8976 55.5435L41.1736 54.5615C41.1736 54.5615 41.483 54.6954 41.7924 54.7635C42.0995 54.8316 42.5445 54.4581 42.5445 54.4581C45.0197 52.7971 50.6176 47.9151 55.7703 43.1342C60.923 38.3532 65.902 30.9974 67.8275 27.572C69.7529 24.149 68.927 22.6571 68.1012 21.8419L68.1035 21.8443ZM56.0845 16.2833C56.0845 16.2833 60.0353 13.8094 62.9532 12.9942C62.9532 12.9942 57.2507 21.3697 52.0979 26.3174L56.0821 16.281L56.0845 16.2833ZM65.3903 25.319C64.3669 27.6002 59.3784 37.444 45.8504 46.4233C45.8504 46.4233 47.1213 40.4888 49.1467 34.5919C49.1467 34.5919 57.8052 25.5938 65.0524 24.8655C65.3023 24.842 65.4927 25.0887 65.3903 25.319Z" fill="#375474"/>
<path id="Vector_3" d="M89.4163 11.4616C89.4163 11.4616 90.6277 9.55392 90.6277 7.16462C90.6277 4.77532 89.3901 2.84179 87.1505 2.48469C87.1505 2.48469 83.183 1.11266 76.9498 8.53665C70.7165 15.9606 67.8819 26.6174 66.9799 29.5916C66.0778 32.5659 64.8664 37.1683 64.8426 40.7041C64.8188 44.2399 67.7796 44.8484 70.0715 44.2893C72.3635 43.7301 76.8212 40.0933 79.1917 36.4071C81.5622 32.721 82.6689 30.6089 82.926 29.9981C83.183 29.3873 83.1568 28.8539 82.4357 28.7012C81.7146 28.5485 81.329 28.6754 81.1481 28.955C80.9672 29.2345 80.7364 28.955 80.7625 28.7012C80.7887 28.4475 80.427 28.3958 79.9391 28.37C79.4512 28.3441 79.0894 28.5227 78.8324 28.955C78.5753 29.3872 77.0283 31.9293 77.0283 31.9293C77.0283 31.9293 74.5293 36.0477 72.0826 38.5404C69.636 41.033 69.6098 38.2608 70.1239 36.0477C70.638 33.8346 72.1064 28.2924 74.3484 23.1544C76.5904 18.0163 80.5555 11.2032 83.8804 8.22888C87.2029 5.25459 86.8435 8.63532 86.4056 9.70428C85.9676 10.7732 85.7606 11.2055 85.8915 11.612C86.0224 12.0184 85.9938 12.6292 86.665 12.6034C87.3362 12.5776 87.6694 11.9926 87.6694 11.9926C87.6694 11.9926 87.8764 12.3497 88.5714 12.1194C89.2663 11.8892 89.4211 11.4593 89.4211 11.4593L89.4163 11.4616Z" fill="#375474"/>
<path id="Vector_4" d="M108.376 10.5447C108.376 10.5447 110.513 6.85857 108.504 2.55924C108.504 2.55924 106.005 -2.24756 99.7196 1.31408C93.434 4.87336 92.4558 9.47576 90.2138 12.9599C87.9719 16.444 85.3443 25.7756 85.2682 30.963C85.192 36.1504 86.6343 38.5162 90.6256 39.1506C94.6193 39.7872 98.3012 35.8967 99.9767 33.7094C101.652 31.5222 105.129 25.139 106.469 20.257C107.217 17.6633 107.164 17.5364 107.164 17.5364L110.339 16.6836C110.868 16.5426 111.234 16.0681 111.234 15.5277L113.657 15.0602C114.09 14.9756 114.404 14.6021 114.404 14.1651C114.404 13.6059 113.331 13.2958 112.774 13.4062C109.768 14.003 101.681 15.6546 97.4301 17.0478C96.8874 17.2263 96.6304 17.8418 96.8946 18.3423C97.1802 18.8803 97.6157 19.5451 98.2202 20.0549C98.4868 20.2805 98.8581 20.3345 99.1746 20.1865C99.8815 19.8552 101.271 19.2444 102.373 19.0095C102.373 19.0095 100.983 25.4185 97.9679 29.638C94.9525 33.8575 93.227 34.3931 92.1988 34.2662C92.1988 34.2662 89.3832 34.3179 90.628 26.9597C91.8727 19.6015 94.9977 13.9748 96.0639 12.2104C97.1302 10.4461 100.769 4.30952 104.513 5.15764C105.682 5.46305 105.336 7.12405 105.063 7.76778C104.789 8.4115 104.651 9.42878 105.336 9.66606C106.022 9.90335 106.298 9.46167 106.298 9.46167C106.298 9.46167 106.229 9.86811 106.469 9.93624C106.71 10.0044 106.917 9.79998 106.917 9.79998C106.917 9.79998 106.265 10.9535 107.157 11.1908C108.05 11.4281 108.376 10.5377 108.376 10.5377V10.5447Z" fill="#375474"/>
<path id="Vector_5" d="M0.234573 78.8714C-0.412792 78.2676 0.405934 77.5487 1.16278 77.0413C1.91963 76.5338 7.86015 71.8539 20.26 66.1919C32.6599 60.5299 61.5462 48.2216 69.4455 45.8488C77.3448 43.4759 82.7379 42.2542 92.4579 39.8485C100.943 37.7129 112.757 36.6956 112.757 36.6956C112.757 36.6956 114.235 36.4584 114.235 37.8139C114.235 38.8993 112.45 38.9675 112.45 38.9675C112.45 38.9675 103.349 39.7804 96.0327 41.3074C88.7165 42.8345 75.9739 46.4948 73.9128 47.1386C73.9128 47.1386 74.6673 47.1386 74.6673 47.7494C74.6673 48.3602 74.3935 48.3931 73.1893 48.6656C71.985 48.9382 62.3007 51.7504 50.4172 56.3622C38.5338 60.974 19.1272 70.5688 19.1272 70.5688C19.1272 70.5688 10.3901 75.0114 3.77366 79.4846C3.12153 79.8581 2.91447 80.2293 2.02197 79.8229C1.12946 79.4165 2.02197 78.9066 2.02197 78.9066C2.02197 78.9066 0.853378 79.4493 0.236953 78.8738L0.234573 78.8714Z" fill="#375474"/>
</g>
</svg>
