<svg width="48" height="17" viewBox="0 0 48 17" fill="none" xmlns="http://www.w3.org/2000/svg">
<g id="logo-bemy 1" clip-path="url(#clip0_488_1952)">
<path id="Union 2" d="M39.251 16.147L40.5713 12.647L36.8428 3.32495H40.3428L42.2373 9.05195L44.0303 3.32495H47.4551L42.6279 16.151L39.251 16.147ZM3.33691 11.666V12.824H0V0.00195312H3.33691V4.58795C3.6629 4.12769 4.09568 3.75302 4.59766 3.49585C5.09963 3.23868 5.65573 3.10663 6.21973 3.11095C8.48373 3.11095 10.4326 4.99195 10.4326 8.02995V8.06395C10.4326 11.157 8.4844 13.034 6.2334 13.034C5.67753 13.047 5.1258 12.9301 4.62305 12.6926C4.12029 12.4551 3.6799 12.1036 3.33691 11.666ZM3.26562 8.04695V8.08095C3.24497 8.35101 3.27938 8.62246 3.36621 8.87901C3.45305 9.13556 3.59106 9.37193 3.77148 9.57393C3.95191 9.77593 4.17086 9.9394 4.41602 10.0545C4.66117 10.1697 4.92757 10.2341 5.19824 10.244C5.47112 10.2383 5.74004 10.1769 5.98828 10.0634C6.23653 9.95 6.45874 9.78694 6.6416 9.58432C6.82446 9.38169 6.96332 9.14378 7.05078 8.88524C7.13824 8.62669 7.17269 8.35298 7.15039 8.08095V8.04695C7.16925 7.77672 7.13277 7.50547 7.04395 7.24955C6.95512 6.99364 6.81503 6.75836 6.63281 6.55792C6.45059 6.35748 6.22972 6.19602 5.9834 6.08328C5.73708 5.97054 5.471 5.90886 5.2002 5.90195C4.93049 5.91014 4.66477 5.97281 4.41992 6.08621C4.17508 6.1996 3.95608 6.36137 3.77539 6.56176C3.5947 6.76216 3.45666 6.99705 3.36914 7.25229C3.28162 7.50753 3.24594 7.77784 3.26562 8.04695ZM11.4854 8.11795V8.08095C11.4577 7.43576 11.5612 6.79167 11.79 6.18779C12.0189 5.58392 12.3681 5.03285 12.8164 4.56806C13.2647 4.10326 13.8032 3.73442 14.3984 3.48394C14.9937 3.23347 15.6335 3.10657 16.2793 3.11095C17.4552 3.05005 18.6076 3.45247 19.4902 4.23187C20.3728 5.01127 20.915 6.10556 21 7.27995L19.2822 8.99395H14.6963C14.7915 9.4591 15.052 9.87398 15.4297 10.1617C15.8074 10.4495 16.2763 10.5906 16.75 10.559C17.2141 10.5652 17.6713 10.443 18.0703 10.206L15.3467 12.932C14.2284 12.7346 13.2205 12.1375 12.5098 11.2518C11.7991 10.3662 11.4358 9.25241 11.4854 8.11795ZM14.6465 7.29295H17.9463C17.8213 6.23695 17.21 5.56795 16.293 5.56795C15.42 5.56895 14.8225 6.25395 14.6465 7.29295ZM33.001 12.823V7.65995C33.001 6.62495 32.4882 6.08095 31.7012 6.08095C30.9142 6.08095 30.3291 6.62395 30.3291 7.65995V12.824H26.9922V7.65995C26.9922 6.62495 26.4834 6.08095 25.6924 6.08095C24.9014 6.08095 24.3398 6.62395 24.3398 7.65995V12.824H21V8.90895L26.7715 3.13395C26.9021 3.11716 27.0333 3.10914 27.165 3.10995C27.7221 3.07709 28.2769 3.20566 28.7627 3.48024C29.2485 3.75482 29.6451 4.16374 29.9043 4.65795C30.2804 4.17315 30.7627 3.78138 31.3145 3.51295C31.8662 3.24453 32.4723 3.10664 33.0859 3.10995C35.1029 3.10995 36.335 4.37295 36.335 6.58995V12.824L33.001 12.823Z" fill="#F9F9FA"/>
</g>
<defs>
<clipPath id="clip0_488_1952">
<rect width="47.456" height="16.146" fill="white"/>
</clipPath>
</defs>
</svg>
