<svg width="35" height="34" viewBox="0 0 35 34" fill="none" xmlns="http://www.w3.org/2000/svg">
<path d="M27.4134 20.0782H6.85335V21.7915H27.4134V20.0782Z" fill="#375474"/>
<path d="M27.4134 16.009H6.85335V17.7223H27.4134V16.009Z" fill="#375474"/>
<path d="M27.4134 24.1473H6.85335V25.8607H27.4134V24.1473Z" fill="#375474"/>
<path d="M27.4136 28.2168H6.85352V29.9301H27.4136V28.2168Z" fill="#375474"/>
<path d="M27.4136 32.2861H6.85352V33.9995H27.4136V32.2861Z" fill="#375474"/>
<path d="M32.9843 8.77625L18.4201 0.34406C17.626 -0.115115 16.6382 -0.114258 15.8458 0.34406L1.28158 8.77625C0.490871 9.23457 0 10.087 0 11.001V31.43C0 32.8469 1.15308 34 2.57001 34H5.14001V14.2966H29.1267V34H31.6967C33.1137 34 34.2667 32.8469 34.2667 31.43V11.001C34.2667 10.0878 33.7759 9.23457 32.9843 8.77625ZM20.56 9.15575H13.7067C13.233 9.15575 12.85 8.77282 12.85 8.29908C12.85 7.82535 13.233 7.44242 13.7067 7.44242H20.56C21.0338 7.44242 21.4167 7.82535 21.4167 8.29908C21.4167 8.77282 21.0338 9.15575 20.56 9.15575Z" fill="#375474"/>
</svg>
