<svg width="29" height="50" viewBox="0 0 29 50" fill="none" xmlns="http://www.w3.org/2000/svg">
<path d="M27.2111 32.7367C27.0532 32.5788 26.8427 32.4736 26.6322 32.3683C25.4743 22.0525 18.4216 20.9473 14.3164 20.9473C10.2111 20.9473 3.15847 22.0525 2.05321 32.3157C1.79005 32.421 1.57953 32.5788 1.42163 32.7367C0.632158 33.4736 0.211105 34.6315 0.211105 36.2631C0.211105 37.6841 0.579526 38.6841 1.31637 39.3157C1.00058 42.9999 1.05321 45.7367 2.2111 47.3157C3.05321 48.421 5.26374 47.9473 7.73742 47.5788C8.00058 47.7894 8.26374 47.9999 8.57953 48.2104C10.2637 49.3683 12.2111 49.9999 14.2637 49.9999C16.3164 49.9999 18.2637 49.3683 19.9479 48.2104C20.2637 47.9999 20.5269 47.7894 20.7901 47.5788C23.2637 47.9473 25.4743 48.421 26.3164 47.3683C27.5269 45.842 27.5269 43.1052 27.2111 39.3683C27.8953 38.7367 28.2637 37.6841 28.2637 36.3157C28.369 34.5788 28.0006 33.4209 27.2111 32.7367ZM25.0006 38.1052C24.3164 38.1578 23.8427 38.6841 23.7901 39.3157C23.5269 41.9473 21.8427 44.3683 18.8427 46.5262C16.2111 48.421 12.4743 48.421 9.84268 46.5262C6.84268 44.421 5.15847 41.9999 4.89531 39.3683C4.79005 38.6841 4.31637 38.1578 3.68479 38.1052C2.89532 38.0525 2.369 37.9473 2.369 36.2631C2.369 34.8946 2.68479 34.4209 2.89532 34.2631C2.94795 34.2104 3.00058 34.1578 3.10584 34.1578C3.21111 34.5788 3.52689 34.8946 3.94795 34.9473C4.52689 35.0525 5.05321 34.6841 5.15847 34.1052C5.57953 31.6315 6.05321 29.7894 6.84268 28.4736L7.42163 30.9473C7.5269 31.3683 7.89532 31.6315 8.31637 31.6315H20.5269C20.9479 31.6315 21.3164 31.3157 21.4216 30.9473L22.0006 28.4736C22.7901 29.842 23.2637 31.6841 23.6848 34.1052C23.7901 34.6315 24.2111 34.9473 24.6848 34.9473C24.7374 34.9473 24.7901 34.9473 24.8427 34.9473C25.2637 34.8946 25.5795 34.5262 25.6848 34.1578C25.7901 34.2104 25.8427 34.2631 25.8953 34.2631C26.1058 34.4209 26.4216 34.8946 26.4216 36.2631C26.3164 37.9999 25.7374 38.0525 25.0006 38.1052Z" fill="#375474"/>
<path d="M10.4739 37.6842C11.4912 37.6842 12.316 36.8595 12.316 35.8421C12.316 34.8247 11.4912 34 10.4739 34C9.4565 34 8.63176 34.8247 8.63176 35.8421C8.63176 36.8595 9.4565 37.6842 10.4739 37.6842Z" fill="#375474"/>
<path d="M18.1585 37.6842C19.1759 37.6842 20.0006 36.8595 20.0006 35.8421C20.0006 34.8247 19.1759 34 18.1585 34C17.1411 34 16.3164 34.8247 16.3164 35.8421C16.3164 36.8595 17.1411 37.6842 18.1585 37.6842Z" fill="#375474"/>
<path d="M18.1585 40.1582H10.4742C10.0532 40.1582 9.7374 40.5266 9.84267 40.9477C10.2637 43.0003 12.1058 44.5793 14.3164 44.5793C16.5269 44.5793 18.369 43.0529 18.79 40.9477C18.8953 40.5266 18.5795 40.1582 18.1585 40.1582Z" fill="#375474"/>
<path d="M26.1579 0H2.47368C1.10526 0 0 1.10526 0 2.47368V11.3684C0 12.7368 1.10526 13.8421 2.47368 13.8421H11L13.2632 18.0526C13.7368 18.8947 14.9474 18.8947 15.3684 18.0526L17.6316 13.8421H26.1579C27.5263 13.8421 28.6316 12.7368 28.6316 11.3684V2.47368C28.6316 1.10526 27.5263 0 26.1579 0ZM11.3158 5.94737C11.3158 5.8421 11.4211 5.73684 11.5789 5.68421L12.9474 5.57895C13.1579 5.57895 13.3158 5.42105 13.4211 5.26316L13.9474 3.94737C14 3.78947 14.1579 3.73684 14.2632 3.73684C14.3684 3.73684 14.5263 3.78947 14.5789 3.94737L15.1053 5.26316C15.2105 5.42105 15.3684 5.57895 15.5789 5.57895L17 5.68421C17.1579 5.68421 17.2632 5.78947 17.2632 5.94737C17.3158 6.05263 17.2632 6.21053 17.1579 6.31579L16.1053 7.21053C15.9474 7.36842 15.8947 7.57895 15.9474 7.73684L16.2632 9.10526C16.3158 9.26316 16.2105 9.36842 16.1579 9.47368C16.0526 9.52631 15.9474 9.57895 15.7895 9.47368L14.5789 8.73684C14.4211 8.63158 14.2105 8.63158 14 8.73684L12.7895 9.47368C12.6842 9.57895 12.5263 9.52631 12.4211 9.47368C12.3158 9.42105 12.2632 9.31579 12.3158 9.10526L12.6316 7.73684C12.6842 7.52632 12.6316 7.36842 12.4737 7.21053L11.4211 6.31579C11.2632 6.21053 11.2632 6.05263 11.3158 5.94737ZM9.52632 6.31579L8.47369 7.21053C8.31579 7.36842 8.26316 7.57895 8.31579 7.73684L8.63158 9.10526C8.68421 9.26316 8.57895 9.36842 8.52632 9.47368C8.42105 9.52631 8.26316 9.57895 8.1579 9.47368L6.94737 8.78947C6.78947 8.68421 6.52632 8.68421 6.36842 8.78947L5.15789 9.52632C5.05263 9.63158 4.89474 9.57895 4.78947 9.52632C4.68421 9.47368 4.63158 9.36842 4.68421 9.15789L5 7.78947C5.05263 7.57895 5 7.42105 4.84211 7.26316L3.78947 6.36842C3.68421 6.26316 3.68421 6.10526 3.68421 6C3.73684 5.89474 3.78947 5.78947 4 5.73684L5.36842 5.63158C5.57895 5.63158 5.73684 5.47368 5.84211 5.31579L6.36842 4C6.42105 3.84211 6.57895 3.78947 6.68421 3.78947C6.78947 3.78947 6.94737 3.84211 7 4L7.52632 5.31579C7.57895 5.47368 7.78947 5.63158 8 5.63158L9.36842 5.73684C9.52632 5.73684 9.63158 5.8421 9.68421 6C9.68421 6.05263 9.68421 6.21053 9.52632 6.31579ZM24.8947 6.31579L23.8421 7.21053C23.6842 7.36842 23.579 7.57895 23.6842 7.73684L24 9.10526C24.0526 9.26316 24 9.36842 23.8947 9.47368C23.7895 9.52631 23.6316 9.57895 23.5263 9.47368L22.3158 8.73684C22.1579 8.63158 21.9474 8.63158 21.7368 8.73684L20.5263 9.47368C20.3684 9.57895 20.2632 9.52631 20.1579 9.47368C20.0526 9.42105 20 9.31579 20.0526 9.10526L20.3684 7.73684C20.4211 7.52632 20.3684 7.36842 20.2105 7.21053L19.1579 6.31579C19.0526 6.21053 19 6.05263 19.0526 5.94737C19.0526 5.8421 19.1579 5.73684 19.3158 5.68421L20.7368 5.57895C20.9474 5.57895 21.1053 5.42105 21.2105 5.26316L21.7368 3.94737C21.7895 3.78947 21.9474 3.73684 22.0526 3.73684C22.1579 3.73684 22.3158 3.78947 22.3684 3.94737L22.8947 5.26316C23 5.42105 23.1579 5.57895 23.3684 5.57895L24.7368 5.68421C24.8947 5.68421 25 5.78947 25 5.94737C25.0526 6.05263 25 6.21053 24.8947 6.31579Z" fill="#375474"/>
</svg>
