<svg width="15" height="15" viewBox="0 0 15 15" fill="none" xmlns="http://www.w3.org/2000/svg">
<path id="btn download" d="M7.49997 11.2884L3.2308 7.01925L4.28462 5.93465L6.75 8.40003V0H8.24995V8.40003L10.7153 5.93465L11.7692 7.01925L7.49997 11.2884ZM1.8077 15C1.30257 15 0.875 14.825 0.525 14.475C0.175 14.125 0 13.6974 0 13.1923V10.4808H1.49997V13.1923C1.49997 13.2692 1.53202 13.3397 1.59612 13.4038C1.66024 13.4679 1.73077 13.5 1.8077 13.5H13.1922C13.2692 13.5 13.3397 13.4679 13.4038 13.4038C13.4679 13.3397 13.5 13.2692 13.5 13.1923V10.4808H15V13.1923C15 13.6974 14.825 14.125 14.475 14.475C14.125 14.825 13.6974 15 13.1922 15H1.8077Z" fill="#F9F9FA"/>
</svg>
