<svg width="40" height="40" viewBox="0 0 40 40" fill="none" xmlns="http://www.w3.org/2000/svg">
<path id="Vector" d="M20.0005 0H19.9995C15.8723 0 12.034 1.2571 8.84469 3.40809C8.84155 3.41018 8.83737 3.41332 8.83318 3.41541C8.76305 3.46356 8.69397 3.51171 8.62384 3.55986C8.56418 3.60277 8.50242 3.6436 8.44276 3.68651C8.43229 3.69384 8.42287 3.70116 8.4124 3.70849C3.65197 7.09983 0.421824 12.527 0.0376815 18.7518V18.7539C0.0125605 19.1768 0 19.5954 0 19.9995C0 20.0623 0.00104671 20.124 0.00209342 20.1858C0.00314013 20.2653 0.00314013 20.3449 0.00418684 20.4234C0.0104671 20.7426 0.025121 21.0608 0.0471019 21.3769L13.7726 11.4991L17.0949 21.6386L3.55567 31.3835C3.8163 31.7603 4.08949 32.1277 4.37629 32.4867C4.63588 32.8112 4.90593 33.1273 5.18645 33.434L18.8345 23.6117L28.572 26.801L12.348 38.4781C13.155 38.8151 13.984 39.0977 14.8298 39.3228C15.6692 39.5478 16.5254 39.7174 17.3921 39.8304C18.2452 39.9424 19.115 40 19.9984 40C29.4764 40 37.4345 33.3733 39.4861 24.5108C39.821 23.0611 39.999 21.5507 39.999 19.9995C40 8.97135 31.0287 0 20.0005 0ZM19.6844 21.1362L16.5077 11.4416L26.2023 14.6173L29.379 24.3119L19.6844 21.1362Z" fill="#375474"/>
</svg>
