<svg width="43" height="30" viewBox="0 0 43 30" fill="none" xmlns="http://www.w3.org/2000/svg">
<path d="M14.0386 29.9991C16.0566 29.9991 17.6924 28.3632 17.6924 26.3452C17.6924 24.3273 16.0566 22.6914 14.0386 22.6914C12.0206 22.6914 10.3848 24.3273 10.3848 26.3452C10.3848 28.3632 12.0206 29.9991 14.0386 29.9991Z" fill="#375474"/>
<path d="M33.4605 29.9991C35.4784 29.9991 37.1143 28.3632 37.1143 26.3452C37.1143 24.3273 35.4784 22.6914 33.4605 22.6914C31.4425 22.6914 29.8066 24.3273 29.8066 26.3452C29.8066 28.3632 31.4425 29.9991 33.4605 29.9991Z" fill="#375474"/>
<path d="M8.84614 18.4615H1.15384C0.847826 18.4615 0.554341 18.5831 0.337953 18.7995C0.121565 19.0159 0 19.3093 0 19.6154C0 19.9214 0.121565 20.2149 0.337953 20.4312C0.554341 20.6476 0.847826 20.7692 1.15384 20.7692H2.15369L1.70754 24.3231C1.6694 24.6479 1.7001 24.9771 1.79764 25.2892C1.89518 25.6013 2.05738 25.8894 2.27366 26.1347C2.48995 26.38 2.75547 26.5769 3.05294 26.7128C3.3504 26.8486 3.67315 26.9202 4.00015 26.923H8.87691C8.86152 26.7384 8.84614 26.5538 8.84614 26.3538C8.84614 24.9767 9.39318 23.656 10.3669 22.6823C11.3407 21.7086 12.6614 21.1615 14.0384 21.1615C15.4155 21.1615 16.7362 21.7086 17.7099 22.6823C18.6837 23.656 19.2307 24.9767 19.2307 26.3538C19.2307 26.5538 19.2154 26.7384 19.2 26.923H24.2307C24.5235 26.9224 24.8052 26.811 25.0192 26.6112C25.2332 26.4115 25.3638 26.1381 25.3846 25.8461L26.8152 2.86153C26.8393 2.49507 26.7879 2.12757 26.6643 1.78174C26.5407 1.43592 26.3475 1.11912 26.0966 0.850925C25.8457 0.582732 25.5425 0.368845 25.2057 0.222486C24.8688 0.0761265 24.5056 0.000404341 24.1383 0H6.78485C6.22359 0.0019169 5.68204 0.207168 5.26051 0.577739C4.83897 0.948309 4.56601 1.45909 4.49218 2.01547L4.16615 4.61538H1.15384C0.847826 4.61538 0.554341 4.73694 0.337953 4.95333C0.121565 5.16972 0 5.4632 0 5.76922C0 6.07524 0.121565 6.36872 0.337953 6.58511C0.554341 6.8015 0.847826 6.92307 1.15384 6.92307H8.84614C9.15216 6.92307 9.44564 7.04463 9.66203 7.26102C9.87842 7.47741 9.99998 7.77089 9.99998 8.07691C9.99998 8.38293 9.87842 8.67641 9.66203 8.8928C9.44564 9.10919 9.15216 9.23075 8.84614 9.23075H2.6923C2.38628 9.23075 2.0928 9.35232 1.87641 9.56871C1.66002 9.7851 1.53846 10.0786 1.53846 10.3846C1.53846 10.6906 1.66002 10.9841 1.87641 11.2005C2.0928 11.4169 2.38628 11.5384 2.6923 11.5384H7.30768C7.61365 11.5382 7.90719 11.6595 8.12372 11.8757C8.34025 12.0919 8.46203 12.3852 8.46228 12.6912C8.46253 12.9971 8.34122 13.2907 8.12504 13.5072C7.90887 13.7237 7.61553 13.8455 7.30956 13.8458L7.30768 13.8454L4.23076 13.8461C3.92474 13.8461 3.63126 13.9677 3.41487 14.1841C3.19848 14.4005 3.07692 14.694 3.07692 15C3.07692 15.306 3.19848 15.5995 3.41487 15.8159C3.63126 16.0323 3.92474 16.1538 4.23076 16.1538L5.79999 16.1535L8.84614 16.1538C9.15216 16.1538 9.44564 16.2754 9.66203 16.4918C9.87842 16.7082 9.99998 17.0016 9.99998 17.3077C9.99998 17.6137 9.87842 17.9072 9.66203 18.1236C9.44564 18.3399 9.15216 18.4615 8.84614 18.4615Z" fill="#375474"/>
<path d="M35.9388 3.64183C35.7945 3.46505 35.6127 3.32257 35.4066 3.22474C35.2005 3.1269 34.9751 3.07615 34.747 3.07617H28.3539L27.4874 16.9223H42.3078V11.9933C42.3078 11.6388 42.1853 11.2953 41.9611 11.0207L35.9388 3.64183Z" fill="#375474"/>
<path d="M26.9235 25.9382C26.9097 26.2816 26.8204 26.6177 26.6621 26.9228H28.293C28.2772 26.7381 28.2622 26.5535 28.2622 26.3535C28.2622 24.9745 28.81 23.6519 29.7852 22.6767C30.7603 21.7016 32.0829 21.1537 33.462 21.1537C34.8411 21.1537 36.1637 21.7016 37.1388 22.6767C38.114 23.6519 38.6618 24.9745 38.6618 26.3535C38.6618 26.5535 38.6468 26.7381 38.631 26.9228H39.6158C40.3288 26.9193 41.0116 26.6346 41.5158 26.1304C42.02 25.6263 42.3047 24.9435 42.3081 24.2305V19.2305H27.3389L26.9235 25.9382Z" fill="#375474"/>
</svg>
