<svg width="53" height="53" viewBox="0 0 53 53" fill="none" xmlns="http://www.w3.org/2000/svg">
<path id="Vector" d="M20.6595 18.1609L26.2892 8.90168L22.5501 2.70257C22.0564 1.86132 21.3326 1.44069 20.3786 1.44069C19.4246 1.44069 18.6964 1.86188 18.1942 2.70427L12.0418 13.0029L20.6595 18.1609ZM45.0546 35.3333L39.4548 26.0057L48.2091 20.9582L52.2371 27.6935C52.6852 28.4156 52.9364 29.2201 52.9907 30.107C53.045 30.9938 52.8621 31.8123 52.4419 32.5624C52.0218 33.4212 51.3986 34.0977 50.5723 34.592C49.7461 35.0862 48.8506 35.3333 47.8859 35.3333H45.0546ZM37.8111 53L27.7281 42.9048L37.8111 32.8095V37.8572H49.7846L46.1296 45.1762C45.6674 46.0175 45.0372 46.6905 44.239 47.1952C43.4407 47.7 42.5585 47.9524 41.5922 47.9524H37.8111V53ZM13.4137 47.9524C12.5726 47.9524 11.8072 47.735 11.1175 47.3004C10.4278 46.8657 9.91838 46.2881 9.58928 45.5676C9.26021 44.8895 9.10267 44.1824 9.11664 43.4464C9.13066 42.7102 9.32673 42.0263 9.70486 41.3947L11.8475 37.8572H22.6866V47.9524H13.4137ZM7.17885 40.7648L3.08262 32.5624C2.69052 31.7948 2.51022 30.9789 2.54171 30.1148C2.57321 29.2508 2.81789 28.4437 3.27576 27.6935L4.27476 26.0057L0 23.4136L13.7958 19.9434L17.2618 33.8243L12.9188 31.1638L7.17885 40.7648ZM41.2088 19.1757L27.4078 15.7064L31.7561 13.1202L23.8788 0H32.7644C33.6466 0 34.4764 0.220372 35.2536 0.661116C36.0308 1.10181 36.6505 1.69993 37.1127 2.45546L40.4001 7.95526L44.6749 5.29474L41.2088 19.1757Z" fill="#3E9F3C"/>
</svg>
