<svg width="40" height="50" viewBox="0 0 40 50" fill="none" xmlns="http://www.w3.org/2000/svg">
<path d="M13.4922 36.3004C12.2427 36.3004 11.0452 35.5716 10.4725 34.4782L7.86939 29.324L6.8802 28.8555L0.059983 43.3289C-0.148268 43.7454 0.216171 44.214 0.684735 44.1098L7.50495 42.8083C7.76526 42.7562 7.97352 42.8603 8.07764 43.0686L11.4097 49.1079C11.6179 49.5244 12.1906 49.4723 12.3988 49.0558L19.2711 34.4782L14.5334 36.0401C14.169 36.1963 13.8566 36.3004 13.4922 36.3004Z" fill="#375474"/>
<path d="M39.9397 43.3282L33.1194 28.8027L32.1302 29.2713L29.5271 34.4255C28.9544 35.5709 27.809 36.2477 26.5075 36.2477C26.143 36.2477 25.7786 36.1956 25.4662 36.0915L20.7285 34.5296L27.6008 49.1072C27.809 49.5237 28.3817 49.5237 28.59 49.1593L31.922 43.12C32.0261 42.9117 32.2864 42.8076 32.4947 42.8597L39.3149 44.1612C39.7835 44.2133 40.1479 43.7447 39.9397 43.3282Z" fill="#375474"/>
<path d="M20.0001 8.75781C15.3665 8.75781 11.618 12.5063 11.618 17.1399C11.618 21.7735 15.3665 25.5741 20.0001 25.5741C24.6337 25.5741 28.3822 21.8256 28.3822 17.192C28.3822 12.5584 24.6337 8.75781 20.0001 8.75781Z" fill="#375474"/>
<path d="M27.757 33.5406L30.4643 28.2302C30.6205 27.9699 30.8287 27.7616 31.089 27.6054L36.3994 24.8982C37.0242 24.5858 37.2845 23.8569 37.0763 23.2322L35.2541 17.5573C35.1499 17.297 35.1499 16.9846 35.2541 16.6723L37.0763 10.9974C37.2845 10.3206 36.9721 9.64379 36.3994 9.33141L31.089 6.62415C30.8287 6.46796 30.6205 6.25971 30.4643 5.9994L27.757 0.793128C27.4447 0.168375 26.7158 -0.091938 26.091 0.116313L20.4162 1.93851C20.1559 2.04263 19.8435 2.04263 19.5311 1.93851L13.9083 0.06425C13.2315 -0.144001 12.5547 0.168375 12.2423 0.793128L9.53508 6.10352C9.37889 6.36384 9.17064 6.57209 8.91033 6.72828L3.59993 9.43554C2.97518 9.74791 2.6628 10.4768 2.92312 11.1015L4.74531 16.7764C4.84944 17.0367 4.84944 17.3491 4.74531 17.6614L2.92312 23.3363C2.71487 24.0131 3.02724 24.6899 3.59993 25.0023L8.91033 27.7095C9.17064 27.8657 9.37889 28.074 9.53508 28.3343L12.2423 33.6447C12.5547 34.2694 13.2836 34.5298 13.9083 34.3215L19.5832 32.4993C19.8435 32.3952 20.1559 32.3952 20.4683 32.4993L26.1431 34.3215C26.7678 34.4256 27.4447 34.1653 27.757 33.5406ZM19.9997 27.5534C14.2728 27.5534 9.63921 22.9198 9.63921 17.1929C9.63921 11.466 14.2728 6.8324 19.9997 6.8324C25.7266 6.8324 30.3602 11.466 30.3602 17.1929C30.3602 22.8677 25.7266 27.5534 19.9997 27.5534Z" fill="#375474"/>
</svg>
