<svg width="53" height="45" viewBox="0 0 53 45" fill="none" xmlns="http://www.w3.org/2000/svg">
<path id="Vector" d="M20.6595 15.4064L26.2892 7.55154L22.5501 2.29266C22.0564 1.579 21.3326 1.22218 20.3786 1.22218C19.4246 1.22218 18.6964 1.57949 18.1942 2.29411L12.0418 11.0307L20.6595 15.4064ZM45.0546 29.9742L39.4548 22.0614L48.2091 17.7794L52.2371 23.4932C52.6852 24.1057 52.9364 24.7882 52.9907 25.5405C53.045 26.2929 52.8621 26.9872 52.4419 27.6236C52.0218 28.3521 51.3986 28.926 50.5723 29.3453C49.7461 29.7646 48.8506 29.9742 47.8859 29.9742H45.0546ZM37.8111 44.9613L27.7281 36.3973L37.8111 27.8332V32.1152H49.7846L46.1296 38.3242C45.6674 39.0379 45.0372 39.6088 44.239 40.037C43.4407 40.4652 42.5585 40.6793 41.5922 40.6793H37.8111V44.9613ZM13.4137 40.6793C12.5726 40.6793 11.8072 40.4949 11.1175 40.1262C10.4278 39.7575 9.91838 39.2675 9.58928 38.6563C9.26021 38.081 9.10267 37.4812 9.11664 36.8567C9.13066 36.2322 9.32673 35.6521 9.70486 35.1162L11.8475 32.1152H22.6866V40.6793H13.4137ZM7.17885 34.5819L3.08262 27.6236C2.69052 26.9724 2.51022 26.2802 2.54171 25.5472C2.57321 24.8142 2.81789 24.1295 3.27576 23.4932L4.27476 22.0614L0 19.8624L13.7958 16.9185L17.2618 28.6941L12.9188 26.4371L7.17885 34.5819ZM41.2088 16.2673L27.4078 13.3242L31.7561 11.1302L23.8788 0H32.7644C33.6466 0 34.4764 0.186947 35.2536 0.560842C36.0308 0.934699 36.6505 1.4421 37.1127 2.08304L40.4001 6.74866L44.6749 4.49167L41.2088 16.2673Z" fill="#3E9F3C"/>
</svg>
